<?xml version="1.0" standalone="no"?>
<!DOCTYPE svg PUBLIC "-//W3C//DTD SVG 20010904//EN"
 "http://www.w3.org/TR/2001/REC-SVG-20010904/DTD/svg10.dtd">
<svg version="1.0" xmlns="http://www.w3.org/2000/svg"
 width="892.000000pt" height="892.000000pt" viewBox="0 0 892.000000 892.000000"
 preserveAspectRatio="xMidYMid meet">
<metadata>
Created by potrace 1.14, written by Peter Selinger 2001-2017
</metadata>
<g transform="translate(0.000000,892.000000) scale(0.100000,-0.100000)"
fill="#000000" stroke="none">
<path d="M7193 8590 c-6 -30 -21 -107 -33 -170 -11 -63 -27 -144 -36 -180 -34
-154 -96 -409 -109 -450 -8 -25 -19 -64 -25 -87 -6 -24 -17 -43 -24 -43 -8 0
-35 35 -62 78 -111 180 -144 231 -245 375 -133 191 -280 384 -297 391 -13 6
30 -78 97 -187 22 -37 41 -70 41 -73 0 -2 8 -17 19 -32 19 -29 124 -212 186
-327 21 -38 71 -129 111 -201 114 -205 111 -193 74 -316 -18 -56 -39 -128 -47
-158 -8 -30 -19 -59 -23 -65 -4 -5 -13 -28 -20 -50 -18 -60 -102 -269 -112
-279 -4 -6 -8 -16 -8 -24 0 -7 -41 -96 -91 -198 -51 -102 -89 -187 -87 -190 3
-3 18 17 33 43 15 26 33 55 40 63 17 21 59 96 123 220 30 58 60 116 68 130 25
46 94 202 145 329 28 69 53 132 56 139 9 21 27 13 50 -21 35 -53 323 -634 323
-652 0 -2 11 -29 25 -59 14 -30 25 -60 25 -65 0 -6 4 -11 9 -11 5 0 1 30 -9
68 -10 37 -22 78 -25 92 -13 49 -57 186 -75 230 -10 25 -37 94 -60 154 -37 96
-83 202 -174 398 l-26 57 25 103 c14 57 29 119 35 138 24 90 51 239 70 385 45
344 51 399 48 449 l-3 51 -12 -55z"/>
<path d="M4970 8248 c0 -23 16 -48 31 -48 10 0 -10 58 -22 66 -5 3 -9 -5 -9
-18z"/>
<path d="M1608 8177 c-63 -78 -328 -471 -328 -485 0 -5 -9 -21 -21 -36 -17
-21 -24 -24 -35 -15 -11 9 -14 62 -15 273 -2 253 -2 258 -15 176 -7 -47 -18
-204 -25 -349 l-12 -265 -57 -110 c-30 -61 -61 -124 -67 -141 -6 -16 -37 -93
-68 -170 -58 -144 -74 -188 -118 -335 -72 -239 -56 -248 36 -20 47 118 153
345 213 458 46 85 58 101 70 91 8 -6 14 -29 14 -51 0 -58 46 -317 81 -453 48
-186 50 -172 14 73 -29 198 -45 386 -45 521 0 90 2 100 29 143 29 45 77 137
134 253 16 33 79 151 139 263 61 112 108 205 106 207 -3 3 -16 -10 -30 -28z"/>
<path d="M2815 8145 c-17 -45 -15 -75 4 -75 10 0 27 107 19 116 -3 2 -13 -16
-23 -41z"/>
<path d="M5061 8054 c0 -11 3 -14 6 -6 3 7 2 16 -1 19 -3 4 -6 -2 -5 -13z"/>
<path d="M2721 7889 c-13 -39 -21 -72 -19 -75 2 -2 14 28 27 67 12 39 21 73
18 75 -2 2 -14 -28 -26 -67z"/>
<path d="M5116 7875 c8 -37 14 -45 14 -19 0 10 -5 26 -10 34 -8 11 -9 7 -4
-15z"/>
<path d="M4645 7724 c0 -100 -6 -189 -13 -219 -7 -27 -19 -104 -27 -170 -9
-66 -18 -136 -21 -155 -4 -19 -4 -33 -1 -30 10 9 37 151 53 280 14 115 25 147
46 134 11 -7 10 60 -3 131 -37 217 -34 214 -34 29z"/>
<path d="M5617 7853 c-6 -32 2 -46 21 -34 10 6 10 13 -1 35 l-15 27 -5 -28z"/>
<path d="M5650 7800 c0 -5 5 -10 11 -10 5 0 7 5 4 10 -3 6 -8 10 -11 10 -2 0
-4 -4 -4 -10z"/>
<path d="M5162 7710 c0 -14 2 -19 5 -12 2 6 2 18 0 25 -3 6 -5 1 -5 -13z"/>
<path d="M2662 7700 c0 -14 2 -19 5 -12 2 6 2 18 0 25 -3 6 -5 1 -5 -13z"/>
<path d="M2627 7596 c-9 -27 -17 -57 -16 -65 0 -9 9 9 20 39 11 30 18 59 16
64 -2 6 -11 -11 -20 -38z"/>
<path d="M5750 7634 c0 -5 7 -19 15 -30 8 -10 15 -14 15 -8 0 5 -7 19 -15 30
-8 10 -15 14 -15 8z"/>
<path d="M5176 7605 c-3 -10 -19 -15 -46 -15 -25 0 -39 -4 -35 -10 3 -5 24
-10 46 -10 36 0 41 -4 54 -32 l13 -33 4 30 c3 29 6 30 58 35 52 5 53 5 21 13
-18 4 -44 7 -58 7 -13 0 -26 7 -29 15 -4 8 -10 15 -14 15 -4 0 -10 -7 -14 -15z"/>
<path d="M3032 7575 c-1 -5 -7 -50 -12 -100 -14 -125 -16 -128 -51 -121 -16 3
-29 1 -29 -4 0 -6 8 -10 19 -10 10 0 23 -6 28 -12 6 -7 16 -137 22 -288 7
-151 18 -304 26 -340 l14 -65 -5 75 c-3 41 -9 113 -14 160 -14 125 -13 381 3
421 8 24 10 72 7 164 -3 72 -7 126 -8 120z"/>
<path d="M4953 7568 c2 -7 10 -13 17 -13 7 0 15 6 18 13 2 7 -5 12 -18 12 -13
0 -20 -5 -17 -12z"/>
<path d="M5791 7565 c0 -5 6 -21 14 -35 8 -14 14 -20 14 -15 0 6 -6 21 -14 35
-8 14 -14 21 -14 15z"/>
<path d="M5554 7539 c-10 -17 13 -36 27 -22 12 12 4 33 -11 33 -5 0 -12 -5
-16 -11z"/>
<path d="M2806 7513 c10 -40 14 -41 14 -5 0 18 -5 32 -10 32 -6 0 -8 -11 -4
-27z"/>
<path d="M4687 7533 c-3 -3 13 -345 22 -463 7 -89 8 -56 5 145 -6 294 -6 292
68 311 l43 12 -68 -2 c-38 0 -69 -2 -70 -3z"/>
<path d="M2601 7494 c0 -11 3 -14 6 -6 3 7 2 16 -1 19 -3 4 -6 -2 -5 -13z"/>
<path d="M5710 7495 c14 -8 32 -14 40 -14 8 0 0 6 -19 14 -42 19 -54 19 -21 0z"/>
<path d="M5815 7490 c-3 -5 -16 -10 -28 -10 -17 0 -14 -5 18 -23 36 -20 69
-68 91 -132 4 -13 8 -16 11 -7 3 7 -2 30 -11 52 -17 44 -11 54 31 45 27 -6 27
-6 9 9 -11 9 -26 16 -33 16 -7 0 -28 14 -47 30 -20 18 -37 26 -41 20z"/>
<path d="M5212 7460 c0 -14 2 -19 5 -12 2 6 2 18 0 25 -3 6 -5 1 -5 -13z"/>
<path d="M2580 7436 c-5 -15 -10 -34 -10 -41 0 -8 -7 -33 -16 -55 -14 -35 -26
-46 -78 -71 -33 -16 -50 -26 -36 -23 14 4 39 7 55 8 29 1 30 0 28 -41 -1 -24
0 -43 2 -43 2 0 11 25 20 56 11 39 22 58 36 61 23 6 24 12 2 28 -15 11 -15 17
0 76 17 66 15 92 -3 45z"/>
<path d="M6301 7403 c0 -16 6 -46 14 -68 l13 -40 1 68 c1 53 -2 67 -14 67 -10
0 -15 -9 -14 -27z"/>
<path d="M5998 7388 c5 -5 16 -8 23 -6 8 3 3 7 -10 11 -17 4 -21 3 -13 -5z"/>
<path d="M2806 7363 c-10 -24 8 -37 32 -22 19 12 19 14 4 26 -23 17 -29 16
-36 -4z"/>
<path d="M2908 7353 c7 -3 16 -2 19 1 4 3 -2 6 -13 5 -11 0 -14 -3 -6 -6z"/>
<path d="M2081 7256 c-1 -53 -58 -229 -84 -265 -12 -16 -43 -55 -68 -85 -39
-49 -99 -146 -99 -161 0 -17 20 1 40 38 12 23 41 66 62 95 47 64 67 59 50 -10
-23 -89 -43 -200 -38 -205 3 -3 8 8 11 23 20 91 68 270 77 288 16 31 50 66 64
66 7 0 16 9 19 20 3 11 11 20 16 20 17 0 9 18 -11 23 -16 4 -20 14 -21 54 0
26 -4 68 -8 93 l-8 45 -2 -39z m9 -161 c0 -28 -17 -42 -33 -26 -8 8 -7 17 3
35 15 30 30 25 30 -9z"/>
<path d="M6326 7268 c-5 -15 -3 -35 4 -48 17 -31 21 -20 11 31 -7 41 -8 42
-15 17z"/>
<path d="M2360 7220 c-8 -5 -10 -10 -5 -10 6 0 17 5 25 10 8 5 11 10 5 10 -5
0 -17 -5 -25 -10z"/>
<path d="M410 7162 c-16 -56 -50 -116 -50 -89 0 10 -10 21 -22 26 -31 11 -279
24 -311 15 l-27 -6 0 -298 0 -298 83 5 c45 3 98 9 117 14 19 5 47 9 62 9 17 0
33 9 46 27 l20 27 7 -34 c4 -18 11 -65 15 -104 7 -65 7 -60 9 59 2 151 21 364
51 554 11 74 19 135 17 137 -2 2 -9 -18 -17 -44z m-44 -229 c-5 -82 -10 -115
-23 -153 -4 -13 -6 -13 -16 1 -21 27 -60 48 -115 59 -39 9 -52 16 -52 30 0 13
11 19 43 24 41 6 99 50 137 105 27 38 33 23 26 -66z m-226 -63 c0 -5 -4 -10
-10 -10 -5 0 -10 5 -10 10 0 6 5 10 10 10 6 0 10 -4 10 -10z m-80 -10 c0 -5
-7 -10 -16 -10 -8 0 -12 5 -9 10 3 6 10 10 16 10 5 0 9 -4 9 -10z"/>
<path d="M5950 7204 c0 -6 7 -19 16 -30 14 -18 14 -18 3 6 -14 31 -19 36 -19
24z"/>
<path d="M5250 7130 c0 -16 4 -30 8 -30 5 0 7 14 4 30 -2 17 -6 30 -8 30 -2 0
-4 -13 -4 -30z"/>
<path d="M4571 7120 c-1 -14 -4 -36 -6 -50 l-6 -25 11 25 c6 13 9 36 7 50 l-4
25 -2 -25z"/>
<path d="M4910 7118 c-7 -15 -26 -32 -42 -39 -37 -15 -47 -32 -15 -24 14 4 28
2 32 -4 11 -19 57 57 46 77 -8 14 -11 13 -21 -10z"/>
<path d="M718 6848 c-72 -302 -82 -359 -51 -285 17 41 39 51 29 13 -3 -14 -2
-27 3 -30 5 -3 12 27 16 67 9 98 35 297 42 325 3 12 1 22 -4 22 -5 0 -21 -51
-35 -112z"/>
<path d="M2875 6923 c5 -44 23 -98 30 -92 4 5 -14 87 -26 114 -7 14 -8 8 -4
-22z"/>
<path d="M2891 6798 c-11 -17 -10 -22 1 -29 21 -14 28 -10 28 15 0 33 -13 39
-29 14z"/>
<path d="M4507 6813 c-4 -3 -7 -13 -7 -22 1 -13 3 -13 11 2 11 19 8 33 -4 20z"/>
<path d="M6091 6795 c0 -11 8 -38 19 -60 l19 -40 -6 35 c-3 19 -12 46 -19 60
-12 22 -13 23 -13 5z"/>
<path d="M4478 6707 c-3 -19 -2 -25 4 -19 6 6 8 18 6 28 -3 14 -5 12 -10 -9z"/>
<path d="M1359 6635 c-2 -22 -2 -69 1 -105 l5 -65 8 81 c4 45 3 92 -2 105 -7
22 -9 20 -12 -16z"/>
<path d="M4461 6644 c0 -11 3 -14 6 -6 3 7 2 16 -1 19 -3 4 -6 -2 -5 -13z"/>
<path d="M1925 6600 c-4 -23 -5 -43 -2 -46 2 -3 7 14 11 37 4 23 5 44 2 46 -2
2 -7 -14 -11 -37z"/>
<path d="M5265 6571 c-4 -14 -10 -28 -15 -31 -5 -3 -2 -14 6 -24 20 -28 44 -4
44 44 0 43 -25 51 -35 11z"/>
<path d="M3384 6513 c3 -21 6 -45 6 -53 0 -23 16 -43 28 -36 7 4 4 27 -10 66
-23 68 -34 78 -24 23z"/>
<path d="M5093 6533 c15 -2 37 -2 50 0 12 2 0 4 -28 4 -27 0 -38 -2 -22 -4z"/>
<path d="M4421 6494 c0 -11 3 -14 6 -6 3 7 2 16 -1 19 -3 4 -6 -2 -5 -13z"/>
<path d="M1895 6433 c-12 -76 -12 -84 -5 -76 9 9 23 113 16 113 -3 0 -8 -17
-11 -37z"/>
<path d="M4697 6451 c-4 -17 -3 -21 5 -13 5 5 8 16 6 23 -3 8 -7 3 -11 -10z"/>
<path d="M6200 6386 c0 -14 4 -27 8 -30 5 -3 6 8 4 25 -5 35 -12 38 -12 5z"/>
<path d="M2412 6264 c-2 -91 -4 -103 -25 -122 -13 -12 -31 -22 -40 -22 -19 0
-21 -8 -8 -29 7 -10 12 -8 24 10 16 22 17 22 37 4 19 -17 20 -17 26 1 3 11 9
26 14 35 5 10 4 21 -3 28 -7 7 -14 53 -18 104 l-6 92 -1 -101z"/>
<path d="M5433 6347 c1 -9 -54 -14 -218 -18 -121 -4 -233 -10 -250 -13 -108
-24 -115 -28 -115 -55 0 -15 -18 -61 -39 -104 -22 -43 -36 -77 -33 -75 4 2 45
22 92 44 92 45 245 83 262 66 6 -6 0 -25 -17 -53 -15 -23 -34 -58 -42 -77
l-14 -34 28 20 c45 32 103 52 129 46 13 -3 35 -20 49 -36 34 -40 35 -120 3
-168 -48 -69 -142 -91 -196 -45 -16 14 -33 37 -37 52 -8 28 -8 28 -20 -13 -7
-23 -19 -92 -26 -154 -15 -133 -3 -241 40 -373 30 -91 100 -207 156 -255 44
-39 148 -100 183 -107 l27 -6 -30 17 c-85 48 -144 105 -191 185 -47 80 -79
171 -69 197 2 6 12 12 22 12 18 1 94 26 148 50 17 8 55 14 85 14 51 1 56 -1
93 -41 64 -70 143 -71 217 -3 39 36 48 40 84 36 23 -2 58 -11 80 -20 21 -9 47
-16 58 -16 10 0 21 -8 24 -17 11 -36 39 -93 45 -93 18 0 54 140 70 270 10 79
9 110 -4 185 -9 50 -19 98 -22 108 -14 36 24 16 69 -35 93 -107 176 -273 176
-354 0 -37 11 -54 36 -54 12 0 2 59 -11 64 -18 6 -19 28 -4 112 8 47 16 65 30
69 17 6 18 8 4 35 -8 16 -15 43 -15 60 0 20 -5 30 -15 30 -8 0 -33 28 -57 63
-60 88 -210 240 -288 291 -80 53 -210 108 -310 131 -41 10 -93 27 -115 39 -63
33 -75 37 -72 23z m-162 -577 c37 -20 13 -100 -31 -100 -42 0 -53 50 -18 87
25 27 23 26 49 13z"/>
<path d="M3095 6210 c3 -5 8 -10 11 -10 2 0 4 5 4 10 0 6 -5 10 -11 10 -5 0
-7 -4 -4 -10z"/>
<path d="M3130 6193 c0 -23 51 -131 56 -118 6 16 -32 129 -45 133 -6 2 -11 -5
-11 -15z"/>
<path d="M1381 6154 c0 -11 3 -14 6 -6 3 7 2 16 -1 19 -3 4 -6 -2 -5 -13z"/>
<path d="M1851 6124 c0 -11 3 -14 6 -6 3 7 2 16 -1 19 -3 4 -6 -2 -5 -13z"/>
<path d="M2625 6079 c-3 -10 -18 -20 -33 -23 -15 -4 -51 -17 -80 -29 -45 -18
-56 -19 -74 -8 -17 11 -22 10 -29 -1 -7 -10 -14 -8 -30 12 -15 18 -19 20 -15
7 21 -65 23 -62 -82 -164 -74 -73 -106 -113 -127 -158 -69 -148 -83 -260 -41
-330 13 -22 34 -59 46 -83 29 -55 42 -45 34 27 -8 76 19 215 58 300 22 46 53
88 104 139 72 73 100 84 88 36 -8 -30 -6 -30 36 1 45 33 65 32 106 -9 29 -29
34 -41 34 -82 0 -85 -63 -145 -134 -126 -33 9 -66 47 -69 79 -2 39 -15 14 -27
-55 -20 -108 -8 -289 23 -387 27 -82 99 -215 152 -280 39 -48 128 -105 174
-112 l36 -5 -48 31 c-65 43 -187 214 -187 263 0 14 107 69 180 93 60 19 100
21 127 7 12 -7 48 -12 81 -12 51 0 65 4 103 33 40 29 54 36 85 41 7 1 24 16
39 34 32 38 59 41 93 10 l24 -23 -6 90 c-14 181 -68 334 -162 457 -24 31 -44
61 -44 67 0 17 34 13 107 -14 37 -13 69 -22 72 -19 2 2 -6 18 -18 35 -13 18
-21 39 -18 50 6 22 -3 28 -88 57 -97 33 -201 51 -348 59 -123 7 -138 6 -142
-8z m13 -540 c4 -44 -28 -80 -53 -59 -18 15 -20 71 -3 88 7 7 22 11 33 10 15
-2 21 -12 23 -39z"/>
<path d="M6280 6051 c0 -10 3 -33 6 -51 5 -22 9 -28 15 -18 14 22 10 75 -6 82
-10 3 -15 -1 -15 -13z"/>
<path d="M1843 6005 c0 -22 2 -30 4 -17 2 12 2 30 0 40 -3 9 -5 -1 -4 -23z"/>
<path d="M8673 5998 c-37 -138 -42 -162 -38 -166 2 -2 7 9 11 24 4 16 10 34
14 39 11 14 33 120 29 134 -3 7 -9 -7 -16 -31z"/>
<path d="M3510 5957 c0 -8 9 -22 20 -32 23 -21 25 -16 8 20 -12 27 -28 34 -28
12z"/>
<path d="M2 5867 c-3 -85 2 -91 68 -101 56 -7 75 3 65 35 -12 37 -48 88 -67
94 -9 4 -20 15 -23 26 -4 10 -14 19 -24 19 -14 0 -17 -11 -19 -73z"/>
<path d="M8265 5777 c-16 -34 -41 -91 -57 -127 -86 -197 -210 -443 -293 -582
-5 -9 -24 -41 -41 -70 -18 -29 -41 -64 -53 -77 -18 -21 -23 -22 -38 -10 -15
13 -16 11 -10 -20 4 -18 7 -75 8 -125 l1 -91 17 96 c15 89 20 102 82 195 60
91 89 140 171 294 31 59 154 328 181 395 48 122 68 177 65 181 -2 2 -17 -25
-33 -59z"/>
<path d="M1833 5765 c0 -38 2 -53 4 -32 2 20 2 52 0 70 -2 17 -4 1 -4 -38z"/>
<path d="M988 5645 c-4 -16 -12 -127 -19 -245 -14 -234 -2 -518 26 -674 8 -44
13 -82 10 -84 -10 -10 -121 251 -155 363 -7 22 -16 45 -20 50 -5 6 -20 55 -35
110 -31 115 -38 128 -29 59 17 -126 91 -360 167 -526 19 -40 37 -80 41 -88 3
-8 17 -33 31 -55 14 -22 31 -50 37 -62 12 -25 38 -31 38 -10 0 15 -26 137 -34
157 -20 52 -46 322 -52 530 -7 247 3 292 25 125 31 -229 118 -533 195 -680 9
-16 16 -35 16 -42 0 -7 9 -31 21 -53 19 -36 22 -64 28 -263 7 -199 8 -207 9
-82 1 77 5 190 8 250 6 109 6 110 -17 120 -39 16 -124 233 -179 455 -35 141
-78 404 -98 600 -6 59 -9 69 -14 45z"/>
<path d="M1835 5405 c5 -177 30 -424 59 -561 8 -38 11 -73 7 -77 -5 -5 -24 17
-42 48 -19 31 -51 83 -72 116 -20 33 -54 92 -74 131 -21 39 -39 66 -40 61 -5
-15 65 -160 131 -271 33 -57 66 -111 71 -121 6 -9 24 -35 42 -57 48 -59 49
-30 9 168 -28 138 -76 447 -76 490 0 4 7 8 15 8 19 0 19 13 -1 51 -8 17 -19
68 -24 112 -7 63 -8 40 -5 -98z"/>
<path d="M541 5544 c0 -11 3 -14 6 -6 3 7 2 16 -1 19 -3 4 -6 -2 -5 -13z"/>
<path d="M542 5480 c0 -14 2 -19 5 -12 2 6 2 18 0 25 -3 6 -5 1 -5 -13z"/>
<path d="M741 5364 c1 -21 5 -50 10 -64 5 -16 6 -4 2 35 -6 70 -13 86 -12 29z"/>
<path d="M7597 5300 c-4 -14 -10 -70 -12 -125 -4 -94 -3 -97 7 -42 8 47 14 57
31 57 19 0 19 1 4 18 -9 9 -17 40 -19 67 -2 41 -4 46 -11 25z"/>
<path d="M1926 5207 c3 -10 9 -15 12 -12 3 3 0 11 -7 18 -10 9 -11 8 -5 -6z"/>
<path d="M5878 5212 c-9 -4 -30 -25 -46 -47 -27 -38 -98 -110 -152 -154 -36
-30 -15 -25 46 9 78 45 222 201 182 199 -7 0 -21 -3 -30 -7z"/>
<path d="M3205 5201 c-15 -6 -25 -29 -39 -82 -20 -79 -72 -185 -115 -233 l-26
-30 30 19 c70 43 147 156 179 264 9 30 16 58 16 63 0 10 -18 9 -45 -1z"/>
<path d="M536 5192 c-5 -8 50 -180 78 -244 19 -44 31 -52 15 -10 -6 15 -19 68
-29 119 -28 134 -31 143 -45 143 -8 0 -16 -3 -19 -8z"/>
<path d="M7680 5140 c0 -8 5 -22 10 -30 9 -13 10 -13 10 0 0 8 -5 22 -10 30
-9 13 -10 13 -10 0z"/>
<path d="M7710 5073 c0 -4 5 -15 10 -23 8 -13 10 -13 10 2 0 9 -4 20 -10 23
-5 3 -10 3 -10 -2z"/>
<path d="M7750 4970 c0 -8 5 -22 10 -30 9 -13 10 -13 10 0 0 8 -5 22 -10 30
-9 13 -10 13 -10 0z"/>
<path d="M2021 4940 c0 -8 4 -24 9 -35 5 -13 9 -14 9 -5 0 8 -4 24 -9 35 -5
13 -9 14 -9 5z"/>
<path d="M8260 4915 c-7 -9 -10 -18 -7 -21 3 -3 10 4 17 15 13 25 8 27 -10 6z"/>
<path d="M8217 4846 c-13 -33 -106 -167 -201 -291 -107 -138 -299 -337 -430
-445 -43 -36 -90 -75 -105 -88 -39 -35 -71 -55 -77 -49 -3 3 4 36 15 74 16 52
29 74 54 92 28 21 56 52 140 154 20 23 57 91 57 103 0 4 -22 -24 -49 -62 -26
-38 -56 -75 -65 -83 -9 -7 -16 -19 -17 -25 0 -12 -48 -52 -74 -63 -16 -6 -18
0 -13 63 l5 69 -23 -70 c-12 -38 -23 -78 -23 -89 -1 -10 -8 -39 -16 -65 -8
-25 -26 -86 -41 -136 -34 -117 -40 -135 -79 -230 -19 -44 -52 -127 -75 -185
-46 -117 -55 -138 -112 -260 -86 -185 -238 -462 -294 -535 -13 -18 -24 -35
-24 -39 0 -11 -162 -260 -230 -354 -27 -37 -66 -91 -87 -120 -21 -29 -82 -107
-136 -175 -54 -67 -113 -140 -130 -161 -30 -37 -125 -145 -291 -330 -39 -43
-73 -81 -76 -85 -3 -3 -23 -22 -44 -41 -48 -43 -41 -31 48 90 117 157 199 285
233 362 10 22 128 167 153 188 3 3 33 39 66 80 148 187 244 342 244 392 -1 22
-2 21 -29 -10 -15 -18 -34 -45 -42 -60 -33 -64 -160 -245 -225 -322 -12 -14
-41 -47 -64 -75 -124 -147 -535 -543 -685 -660 -21 -16 -43 -35 -49 -40 -48
-46 -278 -226 -283 -221 -3 3 16 36 43 73 195 267 411 650 529 933 15 36 35
83 45 105 26 56 120 299 120 311 0 5 18 65 39 134 60 189 107 398 94 411 -12
12 -53 -46 -105 -146 -14 -27 -34 -64 -44 -81 -11 -18 -35 -58 -53 -90 -78
-132 -262 -395 -354 -504 -16 -19 -108 -115 -204 -212 -97 -98 -171 -178 -166
-178 16 0 194 164 285 261 108 117 204 236 296 364 94 132 109 151 116 144 3
-3 -1 -79 -8 -170 -14 -157 -17 -168 -59 -269 -56 -132 -189 -406 -235 -485
-128 -223 -283 -460 -395 -609 -61 -81 -79 -116 -59 -116 32 0 488 369 756
612 130 117 179 150 142 93 -9 -13 -25 -41 -37 -62 -21 -39 -176 -246 -338
-452 -50 -63 -88 -118 -85 -123 3 -4 25 9 49 29 50 43 343 338 453 456 73 78
93 88 121 63 32 -28 154 -106 208 -132 60 -30 72 -46 53 -69 -25 -30 -4 -23
34 11 42 38 46 38 96 24 39 -11 158 -31 355 -60 121 -18 371 -61 545 -94 325
-62 379 -75 415 -96 46 -26 115 -109 115 -138 0 -12 52 -71 133 -151 72 -73
147 -152 166 -177 19 -24 44 -55 57 -67 13 -12 24 -27 24 -34 0 -7 6 -16 13
-20 15 -9 106 -135 126 -175 8 -16 18 -28 23 -28 4 0 8 -6 8 -14 0 -7 10 -35
22 -62 33 -76 108 -304 108 -330 0 -15 6 -24 16 -24 11 0 14 6 9 23 -4 12 -14
45 -22 72 -8 28 -18 59 -23 70 -4 11 -17 52 -29 90 -37 116 -60 164 -124 259
-40 60 -50 73 -77 105 -8 9 -31 37 -50 62 -76 98 -224 264 -293 327 -15 14
-38 48 -51 76 -14 30 -51 76 -88 112 -62 59 -65 61 -153 78 -49 9 -106 21
-125 26 -61 17 -231 47 -305 55 -5 0 -35 6 -65 13 l-56 13 -56 112 c-78 153
-142 312 -177 432 -53 187 -83 387 -96 640 -6 116 -5 122 20 165 14 25 48 92
76 150 28 58 79 164 114 235 84 174 125 264 125 280 0 8 19 30 42 49 23 20 36
36 30 36 -20 0 -14 29 32 144 24 61 56 145 71 186 29 80 74 133 193 223 l53
40 29 -28 c35 -34 38 -62 10 -124 -11 -24 -20 -53 -19 -65 0 -11 7 0 15 26 8
26 19 50 24 53 19 12 11 100 -10 128 l-21 26 34 33 c19 18 50 47 68 64 47 43
139 141 139 148 0 3 16 23 35 43 56 60 150 167 175 199 57 72 176 271 167 280
-2 3 -7 -2 -10 -10z m-2267 -1906 c0 -13 -45 -167 -60 -205 -7 -16 -20 -59
-30 -95 -11 -36 -26 -81 -35 -100 -16 -35 -16 -35 -10 45 9 136 15 157 67 263
44 90 68 122 68 92z m840 -327 c6 -143 32 -362 62 -513 5 -30 14 -80 19 -110
4 -30 24 -103 44 -162 19 -59 35 -115 35 -126 0 -22 -5 -22 -330 -26 -102 -2
-252 -6 -335 -11 -142 -7 -151 -7 -175 12 l-24 20 32 39 c121 144 259 317 302
378 8 12 43 62 79 111 35 50 107 153 159 230 52 77 99 146 105 153 10 13 27
16 27 5z m268 -1146 c18 -26 32 -52 32 -58 0 -13 -116 -2 -215 21 -44 10 -125
24 -179 30 -55 6 -110 19 -123 27 l-23 15 25 24 c21 20 37 24 83 24 64 0 78
-6 83 -35 6 -30 31 -29 66 4 35 32 102 48 148 37 15 -4 25 -2 25 5 0 13 35
-29 78 -94z"/>
<path d="M7542 4780 c0 -14 2 -19 5 -12 2 6 2 18 0 25 -3 6 -5 1 -5 -13z"/>
<path d="M2077 4749 c4 -13 8 -18 11 -10 2 7 -1 18 -6 23 -8 8 -9 4 -5 -13z"/>
<path d="M2101 4674 c0 -11 3 -14 6 -6 3 7 2 16 -1 19 -3 4 -6 -2 -5 -13z"/>
<path d="M2121 4594 c0 -11 3 -14 6 -6 3 7 2 16 -1 19 -3 4 -6 -2 -5 -13z"/>
<path d="M7481 4424 c0 -11 3 -14 6 -6 3 7 2 16 -1 19 -3 4 -6 -2 -5 -13z"/>
<path d="M7461 4314 c0 -11 3 -14 6 -6 3 7 2 16 -1 19 -3 4 -6 -2 -5 -13z"/>
<path d="M2187 4256 c3 -39 10 -81 14 -95 11 -33 1 80 -11 129 -7 25 -7 15 -3
-34z"/>
<path d="M2211 4088 c1 -7 5 -24 9 -38 8 -24 8 -24 9 7 1 17 -3 35 -9 38 -5 3
-10 0 -9 -7z"/>
<path d="M2231 3994 c0 -11 3 -14 6 -6 3 7 2 16 -1 19 -3 4 -6 -2 -5 -13z"/>
<path d="M4009 3867 c-26 -20 -39 -53 -39 -101 0 -52 14 -61 24 -15 8 41 66
99 100 99 18 0 24 4 20 15 -7 18 -82 20 -105 2z"/>
<path d="M2266 3835 c8 -37 14 -45 14 -19 0 10 -5 26 -10 34 -8 11 -9 7 -4
-15z"/>
<path d="M7557 3712 c-10 -10 -17 -32 -16 -48 1 -29 1 -29 11 6 5 19 14 41 20
48 16 19 3 14 -15 -6z"/>
<path d="M2330 3635 c0 -5 5 -17 10 -25 5 -8 10 -10 10 -5 0 6 -5 17 -10 25
-5 8 -10 11 -10 5z"/>
<path d="M2370 3535 c0 -10 50 -85 57 -85 5 0 -35 69 -49 85 -4 5 -8 5 -8 0z"/>
<path d="M7411 3529 c-23 -9 -23 -10 -5 -23 22 -17 30 -14 37 14 6 22 3 23
-32 9z"/>
<path d="M2484 3358 c32 -44 44 -84 51 -168 3 -47 13 -123 20 -170 8 -47 21
-137 30 -200 30 -216 123 -594 166 -672 5 -10 9 -22 9 -28 0 -10 8 -29 69
-165 18 -38 28 -65 23 -60 -42 47 -222 299 -222 310 0 2 -23 41 -52 87 -108
175 -99 164 -113 144 -11 -14 -10 -30 6 -89 89 -321 274 -745 419 -962 81
-120 180 -250 259 -340 48 -54 69 -86 65 -97 -3 -10 -3 -18 -1 -18 3 0 21 -7
41 -15 20 -8 36 -11 36 -6 0 6 -44 63 -97 128 -131 160 -196 250 -190 265 2 7
22 19 43 27 340 120 703 337 962 574 39 37 77 67 82 67 29 0 -7 -194 -71 -383
-28 -82 -32 -123 -9 -87 15 23 78 228 101 327 29 121 37 449 16 608 -11 80
-12 114 -4 123 8 10 7 16 -4 23 -24 15 -42 11 -34 -8 30 -73 48 -389 29 -505
-7 -39 -48 -87 -144 -169 -29 -24 -70 -60 -92 -79 -77 -67 -245 -180 -320
-215 -57 -27 -131 -32 -203 -15 -22 5 -91 12 -153 16 -91 6 -115 10 -122 24
-5 9 -42 64 -83 122 -105 151 -106 153 -72 241 16 40 40 99 55 132 80 177 198
559 225 728 3 20 10 37 15 37 19 0 10 17 -15 28 -39 18 -45 15 -30 -15 12 -25
11 -39 -11 -118 -13 -49 -31 -119 -39 -155 -18 -81 -23 -96 -78 -250 -67 -185
-159 -390 -175 -390 -23 0 -129 292 -189 520 -20 74 -46 173 -59 220 -29 106
-30 165 -4 226 11 26 18 49 15 52 -3 4 -8 -4 -12 -16 -3 -12 -13 -22 -22 -22
-15 0 -20 21 -34 136 -10 74 -15 140 -11 145 3 5 15 7 27 3 14 -4 -1 16 -42
60 -67 68 -86 83 -57 44z m195 -1308 c35 -52 67 -97 70 -100 19 -14 51 -71 51
-90 0 -23 -40 -100 -52 -100 -12 0 -63 107 -115 245 -81 211 -96 271 -51 195
18 -30 62 -98 97 -150z m221 -301 c24 -33 58 -73 75 -88 52 -45 50 -47 -43
-45 -114 2 -112 2 -112 19 0 8 -5 15 -10 15 -6 0 -14 10 -19 22 -5 15 0 38 21
80 15 32 31 58 36 58 4 0 27 -27 52 -61z m285 -319 c-3 -5 -16 -10 -28 -9 -21
0 -21 1 -2 9 28 12 37 12 30 0z"/>
<path d="M2835 1640 c-3 -5 -1 -10 4 -10 6 0 11 5 11 10 0 6 -2 10 -4 10 -3 0
-8 -4 -11 -10z"/>
<path d="M2690 3155 c0 -8 7 -15 15 -15 8 0 15 4 15 9 0 5 -7 11 -15 15 -9 3
-15 0 -15 -9z"/>
<path d="M5587 3053 c-12 -11 -8 -23 7 -23 8 0 16 7 20 15 5 15 -14 21 -27 8z"/>
<path d="M6936 2841 c-8 -12 -5 -25 36 -186 41 -161 72 -267 101 -345 30 -80
98 -241 108 -255 3 -5 28 -53 55 -105 39 -77 108 -190 156 -255 79 -106 168
-208 246 -279 27 -25 33 -27 48 -16 14 12 22 8 61 -35 239 -262 496 -490 733
-651 25 -17 81 -56 125 -86 44 -31 102 -68 129 -83 27 -15 79 -47 115 -72 53
-35 67 -41 69 -28 4 17 -24 55 -40 55 -5 0 -21 8 -36 19 -84 57 -292 191 -297
191 -3 0 -50 33 -103 73 -53 40 -107 79 -118 87 -133 91 -508 459 -652 639
-32 40 -62 54 -62 28 0 -7 13 -28 30 -47 54 -64 31 -55 -32 11 -106 111 -136
149 -226 284 -175 262 -312 588 -402 960 -22 92 -33 115 -44 96z"/>
<path d="M5386 2573 c-6 -14 -5 -15 5 -6 7 7 10 15 7 18 -3 3 -9 -2 -12 -12z"/>
<path d="M5265 2338 c-15 -29 -37 -69 -48 -88 -18 -30 -18 -33 -3 -21 18 15
89 151 82 158 -2 2 -16 -20 -31 -49z"/>
<path d="M1680 2218 c1 -12 59 -120 60 -110 0 14 -48 112 -55 112 -3 0 -5 -1
-5 -2z"/>
<path d="M5162 2150 c-12 -22 -19 -40 -14 -40 5 0 18 18 31 40 12 22 19 40 14
40 -4 0 -18 -18 -31 -40z"/>
<path d="M5116 2068 c-17 -24 -20 -38 -8 -38 8 0 34 52 28 57 -2 3 -11 -6 -20
-19z"/>
<path d="M5066 1980 c-14 -22 -26 -42 -26 -44 0 -3 -13 -25 -30 -49 -50 -75
-33 -90 35 -32 27 24 35 35 23 35 -25 0 -32 19 -15 38 19 22 50 83 44 88 -2 2
-16 -14 -31 -36z"/>
<path d="M1790 1993 c0 -6 5 -15 10 -18 26 -16 9 -60 -42 -112 -31 -31 -46
-53 -37 -53 8 0 33 18 54 40 21 22 47 40 57 40 26 0 22 18 -12 70 -16 25 -30
40 -30 33z"/>
<path d="M1966 1968 c14 -44 35 -88 42 -88 4 0 13 4 21 9 12 8 8 18 -23 55
-41 51 -51 57 -40 24z"/>
<path d="M2071 1861 c8 -14 25 -38 39 -53 32 -38 316 -323 367 -369 22 -20 42
-43 46 -52 7 -19 -37 -103 -59 -111 -9 -3 -24 -1 -34 4 -10 6 -34 10 -53 10
-20 0 -40 7 -49 18 -17 19 -117 188 -145 244 -45 92 -115 224 -134 255 -34 54
-34 30 -1 -34 17 -32 63 -125 103 -208 39 -82 87 -172 105 -200 35 -51 43 -80
22 -73 -15 5 -152 183 -239 311 -34 49 -63 86 -66 84 -12 -13 81 -160 214
-335 l63 -83 -35 -14 c-19 -8 -39 -15 -45 -15 -6 0 -18 -4 -28 -10 -9 -5 -66
-28 -127 -51 -119 -46 -208 -96 -224 -127 -6 -11 -13 -37 -17 -59 -4 -24 -19
-55 -38 -76 -103 -118 -309 -443 -376 -592 -12 -27 -40 -88 -61 -134 -22 -46
-46 -100 -53 -120 -7 -20 -17 -44 -21 -53 -4 -11 -3 -18 4 -18 6 0 16 10 21
23 131 318 252 541 404 746 75 101 93 120 107 121 11 0 1 -412 -10 -449 -11
-37 -7 -51 15 -51 12 0 14 37 14 231 0 166 4 257 16 323 22 128 33 137 301
240 51 20 113 41 138 48 45 12 45 12 84 -26 21 -21 49 -57 61 -81 17 -33 26
-41 41 -38 23 6 24 13 4 39 -21 27 -18 43 8 53 21 8 20 9 -11 15 -36 8 -62 30
-62 52 0 18 31 18 76 -1 30 -12 35 -19 31 -36 -6 -21 -3 -21 52 -16 31 4 68
11 82 16 21 8 18 10 -22 10 -25 1 -53 7 -63 14 -17 13 -16 16 15 60 18 26 37
47 43 47 12 0 116 -79 116 -88 0 -5 -12 -13 -27 -19 l-28 -11 30 0 c17 0 43 3
59 7 29 6 29 6 -50 69 -104 83 -284 251 -468 437 -82 82 -143 139 -135 126z"/>
<path d="M8275 1830 c3 -5 8 -10 11 -10 2 0 4 5 4 10 0 6 -5 10 -11 10 -5 0
-7 -4 -4 -10z"/>
<path d="M1674 1783 c-96 -88 -246 -215 -276 -235 -30 -21 -45 -24 -95 -21
-138 8 -425 9 -508 1 -174 -17 -342 -23 -568 -22 l-227 2 0 -165 c0 -159 1
-163 19 -153 11 5 22 14 26 19 3 5 18 12 33 16 40 9 83 48 86 78 1 15 13 38
26 52 20 22 32 25 87 25 77 0 97 -16 108 -86 8 -58 33 -124 47 -124 13 0 47
41 48 58 0 6 5 12 10 12 6 0 10 10 10 23 0 33 12 44 45 43 26 -1 30 3 33 27 6
48 50 58 200 47 90 -7 144 -7 184 1 63 13 152 -2 162 -26 5 -15 -58 -77 -154
-150 -73 -56 -90 -71 -90 -79 0 -8 177 117 285 202 6 4 42 32 80 62 81 62 183
148 205 170 14 15 166 153 234 212 17 15 26 27 20 28 -5 0 -19 -8 -30 -17z"/>
<path d="M8330 1770 c0 -5 5 -10 10 -10 6 0 10 5 10 10 0 6 -4 10 -10 10 -5 0
-10 -4 -10 -10z"/>
<path d="M8360 1746 c0 -15 231 -228 345 -319 11 -8 34 -27 50 -40 59 -48 165
-117 165 -107 0 6 -3 10 -8 10 -25 0 -382 314 -382 337 0 10 5 11 18 4 38 -20
151 -40 212 -38 48 1 64 -1 63 -10 -2 -9 12 -13 46 -13 l48 0 2 85 2 85 -73 0
c-63 0 -118 -5 -273 -25 -16 -2 -46 -6 -66 -8 -20 -2 -42 -7 -48 -12 -8 -4
-28 5 -51 24 -37 29 -50 36 -50 27z"/>
<path d="M804 1074 c-18 -14 -18 -15 4 -4 12 6 22 13 22 15 0 8 -5 6 -26 -11z"/>
<path d="M2960 1071 c14 -11 29 -21 33 -21 4 0 20 -9 35 -20 26 -19 102 -54
102 -47 0 6 -97 67 -106 67 -4 0 -15 6 -23 14 -9 7 -27 17 -41 20 l-25 7 25
-20z"/>
<path d="M7838 1073 c6 -2 18 -2 25 0 6 3 1 5 -13 5 -14 0 -19 -2 -12 -5z"/>
<path d="M3165 960 c3 -5 11 -10 16 -10 6 0 7 5 4 10 -3 6 -11 10 -16 10 -6 0
-7 -4 -4 -10z"/>
<path d="M580 925 c-17 -10 -20 -14 -9 -15 9 0 22 7 29 15 15 18 12 18 -20 0z"/>
<path d="M480 863 c-30 -20 -57 -39 -60 -42 -3 -4 -16 -15 -30 -24 -13 -9 -19
-17 -12 -17 10 0 139 86 167 111 22 21 -14 5 -65 -28z"/>
<path d="M4645 689 c-27 -4 -65 -12 -83 -18 -47 -14 -151 -74 -192 -111 l-35
-31 50 27 c28 15 57 33 65 39 8 6 42 24 75 40 62 29 153 43 285 45 46 0 61 3
50 10 -18 11 -143 11 -215 -1z"/>
<path d="M189 653 c-13 -15 -12 -15 9 -4 23 12 28 21 13 21 -5 0 -15 -7 -22
-17z"/>
<path d="M113 604 c-24 -14 -43 -30 -43 -35 0 -12 32 5 50 25 7 9 19 16 26 16
8 0 14 5 14 10 0 13 2 14 -47 -16z"/>
<path d="M25 535 c-16 -13 -27 -26 -25 -29 3 -2 18 7 34 20 37 32 30 39 -9 9z"/>
<path d="M2760 404 c0 -12 44 -74 53 -74 19 0 4 41 -23 60 -16 12 -30 18 -30
14z"/>
<path d="M5005 268 c-71 -18 -70 -17 -49 -32 16 -12 25 -11 66 10 69 35 64 42
-17 22z"/>
</g>
</svg>
